<?xml version='1.0' encoding='utf-8'?>
<!DOCTYPE svg>
<!-- Generator: Adobe Illustrator 16.0.0, SVG Export Plug-In . SVG Version: 6.00 Build 0)  -->
<svg xmlns="http://www.w3.org/2000/svg" xml:space="preserve"  y="0px" viewBox="0 0 14.4 43.2" enable-background="new 0 0 14.4 43.2" id="svg2" gorn="0" xmlns:xml="http://www.w3.org/XML/1998/namespace" width="0.2in" version="1.1" height="0.6in" x="0px">
    <desc>
        <referenceFile>sparkfun_rj11-6_schematic.svg</referenceFile>
    </desc>
    <g  id="schematic" gorn="0.0">
        <line  stroke="#000000" id="connector0pin" stroke-width="0.7" y1="3.6" gorn="0.0.0" x2="7.346" fill="none" x1="0.35" stroke-linecap="round" y2="3.6" stroke-linejoin="round"/>
        <rect  y="3.504" id="connector0terminal" gorn="0.0.1" fill="none" width="0.546" height="0.208" x="-0.252"/>
        <polyline  stroke="#000000" stroke-width="0.7" points="14.1,5.557 9.927,3.6 14.1,1.643 " fill="none" stroke-linecap="round" stroke-linejoin="round"/>
        <line  stroke="#000000" id="line" stroke-width="0.7" y1="3.6" gorn="0.0.3" x2="4.804" fill="none" x1="10.11" stroke-linecap="round" y2="3.6" stroke-linejoin="round"/>
        <g  transform="matrix(1 0 0 1 4.3611 2.5796)">
            <text font-size="2.5"  font-family="'DroidSans'" fill="#8C8C8C">1</text>
        </g>
        <line  stroke="#000000" id="connector1pin" stroke-width="0.7" y1="10.8" gorn="0.0.5" x2="7.346" fill="none" x1="0.35" stroke-linecap="round" y2="10.8" stroke-linejoin="round"/>
        <rect  y="10.704" id="connector1terminal" gorn="0.0.6" fill="none" width="0.546" height="0.208" x="-0.252"/>
        <polyline  stroke="#000000" stroke-width="0.7" points="14.1,12.757 9.927,10.8 14.1,8.843 " fill="none" stroke-linecap="round" stroke-linejoin="round"/>
        <line  stroke="#000000" id="line_1_" stroke-width="0.7" y1="10.8" gorn="0.0.8" x2="4.804" fill="none" x1="10.11" stroke-linecap="round" y2="10.8" stroke-linejoin="round"/>
        <g  transform="matrix(1 0 0 1 4.3611 9.7798)">
            <text font-size="2.5"  font-family="'DroidSans'" fill="#8C8C8C">2</text>
        </g>
        <line  stroke="#000000" id="connector2pin" stroke-width="0.7" y1="18" gorn="0.0.10" x2="7.346" fill="none" x1="0.35" stroke-linecap="round" y2="18" stroke-linejoin="round"/>
        <rect  y="17.904" id="connector2terminal" gorn="0.0.11" fill="none" width="0.546" height="0.208" x="-0.252"/>
        <polyline  stroke="#000000" stroke-width="0.7" points="14.1,19.957 9.927,18 14.1,16.043 " fill="none" stroke-linecap="round" stroke-linejoin="round"/>
        <line  stroke="#000000" id="line_2_" stroke-width="0.7" y1="18" gorn="0.0.13" x2="4.804" fill="none" x1="10.11" stroke-linecap="round" y2="18" stroke-linejoin="round"/>
        <g  transform="matrix(1 0 0 1 4.3611 16.98)">
            <text font-size="2.5"  font-family="'DroidSans'" fill="#8C8C8C">3</text>
        </g>
        <line  stroke="#000000" id="connector3pin" stroke-width="0.7" y1="25.2" gorn="0.0.15" x2="7.346" fill="none" x1="0.35" stroke-linecap="round" y2="25.2" stroke-linejoin="round"/>
        <rect  y="25.104" id="connector3terminal" gorn="0.0.16" fill="none" width="0.546" height="0.208" x="-0.252"/>
        <polyline  stroke="#000000" stroke-width="0.7" points="14.1,27.157 9.927,25.2 14.1,23.243 " fill="none" stroke-linecap="round" stroke-linejoin="round"/>
        <line  stroke="#000000" id="line_3_" stroke-width="0.7" y1="25.2" gorn="0.0.18" x2="4.804" fill="none" x1="10.11" stroke-linecap="round" y2="25.2" stroke-linejoin="round"/>
        <g  transform="matrix(1 0 0 1 4.3611 24.1802)">
            <text font-size="2.5"  font-family="'DroidSans'" fill="#8C8C8C">4</text>
        </g>
        <line  stroke="#000000" id="connector4pin" stroke-width="0.7" y1="32.4" gorn="0.0.20" x2="7.346" fill="none" x1="0.35" stroke-linecap="round" y2="32.4" stroke-linejoin="round"/>
        <rect  y="32.304" id="connector4terminal" gorn="0.0.21" fill="none" width="0.546" height="0.208" x="-0.252"/>
        <polyline  stroke="#000000" stroke-width="0.7" points="14.1,34.357 9.927,32.4 14.1,30.443 " fill="none" stroke-linecap="round" stroke-linejoin="round"/>
        <line  stroke="#000000" id="line_4_" stroke-width="0.7" y1="32.4" gorn="0.0.23" x2="4.804" fill="none" x1="10.11" stroke-linecap="round" y2="32.4" stroke-linejoin="round"/>
        <g  transform="matrix(1 0 0 1 4.3611 31.3804)">
            <text font-size="2.5"  font-family="'DroidSans'" fill="#8C8C8C">5</text>
        </g>
        <line  stroke="#000000" id="connector5pin" stroke-width="0.7" y1="39.6" gorn="0.0.25" x2="7.346" fill="none" x1="0.35" stroke-linecap="round" y2="39.6" stroke-linejoin="round"/>
        <rect  y="39.504" id="connector5terminal" gorn="0.0.26" fill="none" width="0.546" height="0.207" x="-0.252"/>
        <polyline  stroke="#000000" stroke-width="0.7" points="14.1,41.557 9.927,39.6 14.1,37.643 " fill="none" stroke-linecap="round" stroke-linejoin="round"/>
        <line  stroke="#000000" id="line_5_" stroke-width="0.7" y1="39.6" gorn="0.0.28" x2="4.804" fill="none" x1="10.11" stroke-linecap="round" y2="39.6" stroke-linejoin="round"/>
        <g  transform="matrix(1 0 0 1 4.3611 38.5796)">
            <text font-size="2.5"  font-family="'DroidSans'" fill="#8C8C8C">6</text>
        </g>
    </g>
</svg>
