<?xml version='1.0' encoding='utf-8'?>
<!DOCTYPE svg>
<!-- Generator: Adobe Illustrator 15.1.0, SVG Export Plug-In . SVG Version: 6.00 Build 0)  -->
<svg xmlns="http://www.w3.org/2000/svg" xml:space="preserve"  y="0px" viewBox="0 0 39.457 50.506" enable-background="new 0 0 39.457 50.506" id="Ebene_1" gorn="0" xmlns:xml="http://www.w3.org/XML/1998/namespace" width="0.548014in" version="1.1" height="0.701472in" x="0px">
    <desc>
        <referenceFile>RJ11-6.svg</referenceFile>
    </desc>
    <g >
        <rect  y="2.751" fill="#1A1A1A" width="39.457" height="29.546"/>
        <g >
            <g  opacity="0.61">
                <g >
                    <g >
                        <rect  y="0.543" fill="#B5751F" width="0.533" height="29.591" x="27.938"/>
                    </g>
                    <g >
                        <rect  y="0.543" fill="#B5751F" width="0.532" height="29.591" x="24.698"/>
                    </g>
                    <g >
                        <rect  y="0.543" fill="#B5751F" width="0.533" height="29.591" x="21.455"/>
                    </g>
                    <g >
                        <rect  y="0.543" fill="#B5751F" width="0.533" height="29.591" x="18.215"/>
                    </g>
                    <g >
                        <rect  y="0.543" fill="#B5751F" width="0.533" height="29.591" x="14.977"/>
                    </g>
                    <g >
                        <rect  y="0.543" fill="#B5751F" width="0.533" height="29.591" x="11.736"/>
                    </g>
                </g>
                <g >
                    <g >
                        <rect  y="0.543" fill="#C4914C" width="0.287" height="29.591" x="27.938"/>
                    </g>
                    <g >
                        <rect  y="0.543" fill="#C4914C" width="0.287" height="29.591" x="24.697"/>
                    </g>
                    <g >
                        <rect  y="0.543" fill="#C4914C" width="0.288" height="29.591" x="21.456"/>
                    </g>
                    <g >
                        <rect  y="0.543" fill="#C4914C" width="0.288" height="29.591" x="18.215"/>
                    </g>
                    <g >
                        <rect  y="0.543" fill="#C4914C" width="0.288" height="29.591" x="14.975"/>
                    </g>
                    <g >
                        <rect  y="0.543" fill="#C4914C" width="0.288" height="29.591" x="11.735"/>
                    </g>
                </g>
                <g >
                    <g >
                        <rect  y="0.543" fill="#D3AC79" width="0.146" height="29.591" x="27.891"/>
                    </g>
                    <g >
                        <rect  y="0.543" fill="#D3AC79" width="0.144" height="29.591" x="24.65"/>
                    </g>
                    <g >
                        <rect  y="0.543" fill="#D3AC79" width="0.144" height="29.591" x="21.411"/>
                    </g>
                    <g >
                        <rect  y="0.543" fill="#D3AC79" width="0.144" height="29.591" x="18.17"/>
                    </g>
                    <g >
                        <rect  y="0.543" fill="#D3AC79" width="0.144" height="29.591" x="14.928"/>
                    </g>
                    <g >
                        <rect  y="0.543" fill="#D3AC79" width="0.144" height="29.591" x="11.688"/>
                    </g>
                </g>
            </g>
        </g>
        <g  opacity="0.58">
            <g >
                <g >
                    <rect  y="0.543" width="1.248" height="29.658" x="27.223"/>
                </g>
                <g >
                    <rect  y="0.543" width="1.248" height="29.658" x="23.982"/>
                </g>
                <g >
                    <rect  y="0.543" width="1.246" height="29.658" x="20.742"/>
                </g>
                <g >
                    <rect  y="0.543" width="1.246" height="29.658" x="17.501"/>
                </g>
                <g >
                    <rect  y="0.543" width="1.248" height="29.658" x="14.261"/>
                </g>
                <g >
                    <rect  y="0.543" width="1.248" height="29.658" x="11.021"/>
                </g>
            </g>
            <g >
                <rect  y="0.543" fill="#4D4D4D" width="0.246" height="29.658" x="11.021"/>
            </g>
            <g >
                <rect  y="0.543" fill="#4D4D4D" width="0.246" height="29.658" x="14.205"/>
            </g>
            <g >
                <rect  y="0.543" fill="#4D4D4D" width="0.246" height="29.658" x="17.5"/>
            </g>
            <g >
                <rect  y="0.543" fill="#4D4D4D" width="0.246" height="29.658" x="20.742"/>
            </g>
            <g >
                <rect  y="0.543" fill="#4D4D4D" width="0.246" height="29.658" x="23.982"/>
            </g>
            <g >
                <rect  y="0.543" fill="#4D4D4D" width="0.246" height="29.658" x="27.223"/>
            </g>
        </g>
        <rect  y="0.001" enable-background="new    " fill="#B3B3B3" opacity="0.16" width="2.978" height="31.457"/>
        <rect  y="0.001" enable-background="new    " opacity="0.52" width="2.979" height="31.457" x="36.439"/>
        <rect  y="0.543" fill="#999999" width="0.036" height="29.658" x="11.026"/>
        <rect  y="0.543" fill="#999999" width="0.036" height="29.658" x="14.187"/>
        <rect  y="0.543" fill="#999999" width="0.036" height="29.658" x="17.483"/>
        <rect  y="0.543" fill="#999999" width="0.036" height="29.658" x="20.723"/>
        <rect  y="0.543" fill="#999999" width="0.036" height="29.658" x="23.965"/>
        <rect  y="0.543" fill="#999999" width="0.036" height="29.658" x="27.206"/>
        <rect  y="0.001" enable-background="new    " fill="#333333" opacity="0.96" width="39.457" height="2.75"/>
        <rect  y="2.751" enable-background="new    " fill="#1A1A1A" opacity="0.76" width="39.457" height="29.546"/>
    </g>
    <g >
        <g  enable-background="new    ">
            <g >
                <path d="M28.831,33.464h1.242v1.485h7.497v4.293h0.72v2.88h-0.72v4.298h-8.541v0.152v1.332h-4.455v1.917h-9.693V49.57v-1.665h-4.446v-1.332V46.42H1.895v-4.298H1.22v-2.88h0.675v-4.293h7.488v-1.485h1.251h0.387h0.243h0.198h0.369h0.189h0.252h0.351h1.251h0.387h0.243h0.189h0.378h0.189h0.252h0.351h1.251H17.5h0.243h0.198h0.369H18.5h0.252h0.351h1.251h0.387h0.243h0.189h0.378h0.197h0.243h0.352h1.251h0.387h0.252h0.189h0.368h0.198h0.243h0.351h1.252h0.387h0.252h0.188h0.369h0.198h0.243H28.831 M39.461,32.204H-0.004v18.302h39.465v-0.005H-0.004v-0.225h39.465v-0.005h-0.405v-5.805h0.405V32.204"  fill="#1A1A1A"/>
                <polyline  points="38.29,39.242 37.57,39.242 37.57,42.122 38.29,42.122 38.29,39.242 "/>
                <polyline  points="1.895,39.242 1.22,39.242 1.22,42.122 1.895,42.122 1.895,39.242 "/>
                <polyline  points="28.831,33.464 28.472,33.464 28.472,40.925 27.221,40.925 27.221,33.464 26.834,33.464 26.834,42.312 25.582,42.312 25.582,33.464 25.231,33.464 25.231,40.925 23.98,40.925 23.98,33.464 23.594,33.464 23.594,42.312 22.343,42.312 22.343,33.464 21.991,33.464 21.991,40.925 20.74,40.925 20.74,33.464 20.354,33.464 20.354,42.312 19.103,42.312 19.103,33.464 18.751,33.464 18.751,40.925 17.5,40.925 17.5,33.464 17.113,33.464 17.113,42.312 15.862,42.312 15.862,33.464 15.512,33.464 15.512,40.925 14.261,40.925 14.261,33.464 13.874,33.464 13.874,42.312 12.623,42.312 12.623,33.464 12.271,33.464 12.271,40.925 11.021,40.925 11.021,33.464 10.633,33.464 10.633,42.312 9.382,42.312 9.382,34.949 1.895,34.949 1.895,39.242 1.895,42.122 1.895,46.42 10.436,46.42 10.436,46.573 10.436,47.905 14.881,47.905 14.881,49.57 14.881,49.822 24.574,49.822 24.574,47.905 29.029,47.905 29.029,46.573 29.029,46.42 37.57,46.42 37.57,42.122 37.57,39.242 37.57,34.949 30.073,34.949 30.073,42.312 28.831,42.312 28.831,33.464 "/>
                <polyline  points="39.461,50.277 -0.004,50.277 -0.004,50.501 39.461,50.501 39.461,50.277 "/>
                <polyline  points="39.461,44.467 39.056,44.467 39.056,50.272 39.461,50.272 39.461,44.467 "/>
                <polyline  points="30.073,33.464 28.831,33.464 29.029,33.464 29.029,34.949 30.073,34.949 30.073,33.464 " fill="#1A1A1A"/>
                <polyline  points="29.029,33.464 28.831,33.464 28.831,42.312 30.073,42.312 30.073,34.949 29.029,34.949 29.029,33.464 " fill="#0D0D0D"/>
                <polyline  points="26.834,33.464 25.582,33.464 25.582,42.312 26.834,42.312 26.834,33.464 " fill="#0D0D0D"/>
                <polyline  points="23.594,33.464 22.343,33.464 22.343,42.312 23.594,42.312 23.594,33.464 " fill="#0D0D0D"/>
                <polyline  points="20.354,33.464 19.103,33.464 19.103,42.312 20.354,42.312 20.354,33.464 " fill="#0D0D0D"/>
                <polyline  points="17.113,33.464 15.862,33.464 15.862,42.312 17.113,42.312 17.113,33.464 " fill="#0D0D0D"/>
                <polyline  points="13.874,33.464 12.623,33.464 12.623,42.312 13.874,42.312 13.874,33.464 " fill="#0D0D0D"/>
                <polyline  points="10.633,33.464 9.382,33.464 9.382,34.949 10.436,34.949 10.436,33.464 10.633,33.464 " fill="#1A1A1A"/>
                <polyline  points="10.633,33.464 10.436,33.464 10.436,34.949 9.382,34.949 9.382,42.312 10.633,42.312 10.633,33.464 " fill="#0D0D0D"/>
                <polyline  points="28.472,33.464 28.229,33.464 28.229,40.925 27.473,40.925 27.473,33.464 27.221,33.464 27.221,40.925 28.472,40.925 28.472,33.464 " fill="#6F4813"/>
                <polyline  points="25.231,33.464 24.988,33.464 24.988,40.925 24.232,40.925 24.232,33.464 23.98,33.464 23.98,40.925 25.231,40.925 25.231,33.464 " fill="#6F4813"/>
                <polyline  points="21.991,33.464 21.748,33.464 21.748,40.925 20.983,40.925 20.983,33.464 20.74,33.464 20.74,40.925 21.991,40.925 21.991,33.464 " fill="#6F4813"/>
                <polyline  points="18.751,33.464 18.5,33.464 18.5,40.925 17.744,40.925 17.744,33.464 17.5,33.464 17.5,40.925 18.751,40.925 18.751,33.464 " fill="#6F4813"/>
                <polyline  points="15.512,33.464 15.26,33.464 15.26,40.925 14.503,40.925 14.503,33.464 14.261,33.464 14.261,40.925 15.512,40.925 15.512,33.464 " fill="#6F4813"/>
                <polyline  points="12.271,33.464 12.02,33.464 12.02,40.925 11.264,40.925 11.264,33.464 11.021,33.464 11.021,40.925 12.271,40.925 12.271,33.464 " fill="#6F4813"/>
                <polyline  points="28.229,33.464 28.03,33.464 28.03,40.925 27.661,40.925 27.661,33.464 27.473,33.464 27.473,40.925 28.229,40.925 28.229,33.464 " fill="#78592E"/>
                <polyline  points="24.988,33.464 24.79,33.464 24.79,40.925 24.422,40.925 24.422,33.464 24.232,33.464 24.232,40.925 24.988,40.925 24.988,33.464 " fill="#78592E"/>
                <polyline  points="21.748,33.464 21.551,33.464 21.551,40.925 21.173,40.925 21.173,33.464 20.983,33.464 20.983,40.925 21.748,40.925 21.748,33.464 " fill="#78592E"/>
                <polyline  points="18.5,33.464 18.311,33.464 18.311,40.925 17.941,40.925 17.941,33.464 17.744,33.464 17.744,40.925 18.5,40.925 18.5,33.464 " fill="#78592E"/>
                <polyline  points="15.26,33.464 15.07,33.464 15.07,40.925 14.692,40.925 14.692,33.464 14.503,33.464 14.503,40.925 15.26,40.925 15.26,33.464 " fill="#78592E"/>
                <polyline  points="12.02,33.464 11.831,33.464 11.831,40.925 11.461,40.925 11.461,33.464 11.264,33.464 11.264,40.925 12.02,40.925 12.02,33.464 " fill="#78592E"/>
                <polyline  points="28.03,33.464 27.661,33.464 27.661,40.925 28.03,40.925 28.03,33.464 " fill="#81694A"/>
                <polyline  points="24.79,33.464 24.422,33.464 24.422,40.925 24.79,40.925 24.79,33.464 " fill="#81694A"/>
                <polyline  points="21.551,33.464 21.173,33.464 21.173,40.925 21.551,40.925 21.551,33.464 " fill="#81694A"/>
                <polyline  points="18.311,33.464 17.941,33.464 17.941,40.925 18.311,40.925 18.311,33.464 " fill="#81694A"/>
                <polyline  points="15.07,33.464 14.692,33.464 14.692,40.925 15.07,40.925 15.07,33.464 " fill="#81694A"/>
                <polyline  points="11.831,33.464 11.461,33.464 11.461,40.925 11.831,40.925 11.831,33.464 " fill="#81694A"/>
            </g>
        </g>
    </g>
    <rect  y="31.459" enable-background="new    " fill="#CCCCCC" opacity="0.42" width="39.457" height="0.839"/>
</svg>
