<?xml version='1.0' encoding='UTF-8' standalone='no'?>
<!-- Created with Fritzing (http://www.fritzing.org/) -->
<svg xmlns="http://www.w3.org/2000/svg" baseProfile="tiny"  y="0in" viewBox="0 0 748.014 1000" width="0.748014in" version="1.2" height="1in" x="0in">
    <desc>
        <referenceFile>sparkfun-connectors_rj11-6_breadboard.svg</referenceFile>
    </desc>
    <desc >Fritzing breadboard generated by brd2svg</desc>
    <g  id="breadboard" gorn="0.1">
        <g  id="icon" gorn="0.1.0">
            <path d="M0,0L0,470A30,30 0 0 1 0,530L0,1000L748.014,1000L748.014,0L0,0z"  stroke="none" stroke-width="0" fill="#1F7A34"/>
            <g  transform="translate(100,149.264)">
                <g >
                    <g >
                        <rect  y="38.2083" fill="#1A1A1A" width="548.014" height="410.361"/>
                        <g >
                            <g  opacity="0.61">
                                <g >
                                    <g >
                                        <rect  y="7.54167" fill="#B5751F" width="7.40278" height="410.986" x="388.028"/>
                                    </g>
                                    <g >
                                        <rect  y="7.54167" fill="#B5751F" width="7.38889" height="410.986" x="343.028"/>
                                    </g>
                                    <g >
                                        <rect  y="7.54167" fill="#B5751F" width="7.40278" height="410.986" x="297.986"/>
                                    </g>
                                    <g >
                                        <rect  y="7.54167" fill="#B5751F" width="7.40278" height="410.986" x="252.986"/>
                                    </g>
                                    <g >
                                        <rect  y="7.54167" fill="#B5751F" width="7.40278" height="410.986" x="208.014"/>
                                    </g>
                                    <g >
                                        <rect  y="7.54167" fill="#B5751F" width="7.40278" height="410.986" x="163"/>
                                    </g>
                                </g>
                                <g >
                                    <g >
                                        <rect  y="7.54167" fill="#C4914C" width="3.98611" height="410.986" x="388.028"/>
                                    </g>
                                    <g >
                                        <rect  y="7.54167" fill="#C4914C" width="3.98611" height="410.986" x="343.014"/>
                                    </g>
                                    <g >
                                        <rect  y="7.54167" fill="#C4914C" width="4" height="410.986" x="298"/>
                                    </g>
                                    <g >
                                        <rect  y="7.54167" fill="#C4914C" width="4" height="410.986" x="252.986"/>
                                    </g>
                                    <g >
                                        <rect  y="7.54167" fill="#C4914C" width="4" height="410.986" x="207.986"/>
                                    </g>
                                    <g >
                                        <rect  y="7.54167" fill="#C4914C" width="4" height="410.986" x="162.986"/>
                                    </g>
                                </g>
                                <g >
                                    <g >
                                        <rect  y="7.54167" fill="#D3AC79" width="2.02778" height="410.986" x="387.375"/>
                                    </g>
                                    <g >
                                        <rect  y="7.54167" fill="#D3AC79" width="2" height="410.986" x="342.361"/>
                                    </g>
                                    <g >
                                        <rect  y="7.54167" fill="#D3AC79" width="2" height="410.986" x="297.375"/>
                                    </g>
                                    <g >
                                        <rect  y="7.54167" fill="#D3AC79" width="2" height="410.986" x="252.361"/>
                                    </g>
                                    <g >
                                        <rect  y="7.54167" fill="#D3AC79" width="2" height="410.986" x="207.333"/>
                                    </g>
                                    <g >
                                        <rect  y="7.54167" fill="#D3AC79" width="2" height="410.986" x="162.333"/>
                                    </g>
                                </g>
                            </g>
                        </g>
                        <g  opacity="0.58">
                            <g >
                                <g >
                                    <rect  y="7.54167" width="17.3333" height="411.917" x="378.097"/>
                                </g>
                                <g >
                                    <rect  y="7.54167" width="17.3333" height="411.917" x="333.083"/>
                                </g>
                                <g >
                                    <rect  y="7.54167" width="17.3056" height="411.917" x="288.083"/>
                                </g>
                                <g >
                                    <rect  y="7.54167" width="17.3056" height="411.917" x="243.069"/>
                                </g>
                                <g >
                                    <rect  y="7.54167" width="17.3333" height="411.917" x="198.069"/>
                                </g>
                                <g >
                                    <rect  y="7.54167" width="17.3333" height="411.917" x="153.069"/>
                                </g>
                            </g>
                            <g >
                                <rect  y="7.54167" fill="#4D4D4D" width="3.41667" height="411.917" x="153.069"/>
                            </g>
                            <g >
                                <rect  y="7.54167" fill="#4D4D4D" width="3.41667" height="411.917" x="197.292"/>
                            </g>
                            <g >
                                <rect  y="7.54167" fill="#4D4D4D" width="3.41667" height="411.917" x="243.056"/>
                            </g>
                            <g >
                                <rect  y="7.54167" fill="#4D4D4D" width="3.41667" height="411.917" x="288.083"/>
                            </g>
                            <g >
                                <rect  y="7.54167" fill="#4D4D4D" width="3.41667" height="411.917" x="333.083"/>
                            </g>
                            <g >
                                <rect  y="7.54167" fill="#4D4D4D" width="3.41667" height="411.917" x="378.097"/>
                            </g>
                        </g>
                        <rect  y="0.0138889" enable-background="new    " fill="#B3B3B3" width="41.3611" opacity="0.16" height="436.903"/>
                        <rect  y="0.0138889" enable-background="new    " width="41.375" opacity="0.52" height="436.903" x="506.097"/>
                        <rect  y="7.54167" fill="#999999" width="0.5" height="411.917" x="153.139"/>
                        <rect  y="7.54167" fill="#999999" width="0.5" height="411.917" x="197.042"/>
                        <rect  y="7.54167" fill="#999999" width="0.5" height="411.917" x="242.819"/>
                        <rect  y="7.54167" fill="#999999" width="0.5" height="411.917" x="287.819"/>
                        <rect  y="7.54167" fill="#999999" width="0.5" height="411.917" x="332.847"/>
                        <rect  y="7.54167" fill="#999999" width="0.5" height="411.917" x="377.861"/>
                        <rect  y="0.0138889" enable-background="new    " fill="#333333" width="548.014" opacity="0.96" height="38.1944"/>
                        <rect  y="38.2083" enable-background="new    " fill="#1A1A1A" width="548.014" opacity="0.76" height="410.361"/>
                    </g>
                    <g >
                        <g  enable-background="new    ">
                            <g >
                                <path d="M400.431,464.778l17.25,0l0,20.625l104.125,0l0,59.625l10,0l0,40l-10,0l0,59.6944l-118.625,0l0,2.11111l0,18.5l-61.875,0l0,26.625l-134.625,0L206.681,688.472l0,-23.125l-61.75,0l0,-18.5L144.931,644.722L26.3194,644.722l0,-59.6944L16.9444,585.028l0,-40l9.375,0l0,-59.625l104,0l0,-20.625l17.375,0l5.375,0l3.375,0l2.75,0l5.125,0l2.625,0l3.5,0l4.875,0l17.375,0l5.375,0l3.375,0l2.625,0l5.25,0l2.625,0l3.5,0l4.875,0l17.375,0L243.056,464.778l3.375,0l2.75,0l5.125,0L256.944,464.778l3.5,0l4.875,0l17.375,0l5.375,0l3.375,0l2.625,0l5.25,0l2.73611,0l3.375,0l4.88889,0l17.375,0l5.375,0l3.5,0l2.625,0l5.11111,0l2.75,0l3.375,0l4.875,0l17.3889,0l5.375,0l3.5,0l2.61111,0l5.125,0l2.75,0l3.375,0L400.431,464.778M548.069,447.278L-0.0555556,447.278l0,254.194l548.125,0l0,-0.0694444L-0.0555556,701.403l0,-3.125l548.125,0l0,-0.0694444l-5.625,0l0,-80.625l5.625,0L548.069,447.278"  fill="#1A1A1A"/>
                                <polyline  points="531.806,545.028,521.806,545.028,521.806,585.028,531.806,585.028,531.806,545.028"/>
                                <polyline  points="26.3194,545.028,16.9444,545.028,16.9444,585.028,26.3194,585.028,26.3194,545.028"/>
                                <polyline  points="400.431,464.778,395.444,464.778,395.444,568.403,378.069,568.403,378.069,464.778,372.694,464.778,372.694,587.667,355.306,587.667,355.306,464.778,350.431,464.778,350.431,568.403,333.056,568.403,333.056,464.778,327.694,464.778,327.694,587.667,310.319,587.667,310.319,464.778,305.431,464.778,305.431,568.403,288.056,568.403,288.056,464.778,282.694,464.778,282.694,587.667,265.319,587.667,265.319,464.778,260.431,464.778,260.431,568.403,243.056,568.403,243.056,464.778,237.681,464.778,237.681,587.667,220.306,587.667,220.306,464.778,215.444,464.778,215.444,568.403,198.069,568.403,198.069,464.778,192.694,464.778,192.694,587.667,175.319,587.667,175.319,464.778,170.431,464.778,170.431,568.403,153.069,568.403,153.069,464.778,147.681,464.778,147.681,587.667,130.306,587.667,130.306,485.403,26.3194,485.403,26.3194,545.028,26.3194,585.028,26.3194,644.722,144.944,644.722,144.944,646.847,144.944,665.347,206.681,665.347,206.681,688.472,206.681,691.972,341.306,691.972,341.306,665.347,403.181,665.347,403.181,646.847,403.181,644.722,521.806,644.722,521.806,585.028,521.806,545.028,521.806,485.403,417.681,485.403,417.681,587.667,400.431,587.667,400.431,464.778"/>
                                <polyline  points="548.069,698.292,-0.0555556,698.292,-0.0555556,701.403,548.069,701.403,548.069,698.292"/>
                                <polyline  points="548.069,617.597,542.444,617.597,542.444,698.222,548.069,698.222,548.069,617.597"/>
                                <polyline  points="417.681,464.778,400.431,464.778,403.181,464.778,403.181,485.403,417.681,485.403,417.681,464.778" fill="#1A1A1A"/>
                                <polyline  points="403.181,464.778,400.431,464.778,400.431,587.667,417.681,587.667,417.681,485.403,403.181,485.403,403.181,464.778" fill="#0D0D0D"/>
                                <polyline  points="372.694,464.778,355.306,464.778,355.306,587.667,372.694,587.667,372.694,464.778" fill="#0D0D0D"/>
                                <polyline  points="327.694,464.778,310.319,464.778,310.319,587.667,327.694,587.667,327.694,464.778" fill="#0D0D0D"/>
                                <polyline  points="282.694,464.778,265.319,464.778,265.319,587.667,282.694,587.667,282.694,464.778" fill="#0D0D0D"/>
                                <polyline  points="237.681,464.778,220.306,464.778,220.306,587.667,237.681,587.667,237.681,464.778" fill="#0D0D0D"/>
                                <polyline  points="192.694,464.778,175.319,464.778,175.319,587.667,192.694,587.667,192.694,464.778" fill="#0D0D0D"/>
                                <polyline  points="147.681,464.778,130.306,464.778,130.306,485.403,144.944,485.403,144.944,464.778,147.681,464.778" fill="#1A1A1A"/>
                                <polyline  points="147.681,464.778,144.944,464.778,144.944,485.403,130.306,485.403,130.306,587.667,147.681,587.667,147.681,464.778" fill="#0D0D0D"/>
                                <polyline  points="395.444,464.778,392.069,464.778,392.069,568.403,381.569,568.403,381.569,464.778,378.069,464.778,378.069,568.403,395.444,568.403,395.444,464.778" fill="#6F4813"/>
                                <polyline  points="350.431,464.778,347.056,464.778,347.056,568.403,336.556,568.403,336.556,464.778,333.056,464.778,333.056,568.403,350.431,568.403,350.431,464.778" fill="#6F4813"/>
                                <polyline  points="305.431,464.778,302.056,464.778,302.056,568.403,291.431,568.403,291.431,464.778,288.056,464.778,288.056,568.403,305.431,568.403,305.431,464.778" fill="#6F4813"/>
                                <polyline  points="260.431,464.778,256.944,464.778,256.944,568.403,246.444,568.403,246.444,464.778,243.056,464.778,243.056,568.403,260.431,568.403,260.431,464.778" fill="#6F4813"/>
                                <polyline  points="215.444,464.778,211.944,464.778,211.944,568.403,201.431,568.403,201.431,464.778,198.069,464.778,198.069,568.403,215.444,568.403,215.444,464.778" fill="#6F4813"/>
                                <polyline  points="170.431,464.778,166.944,464.778,166.944,568.403,156.444,568.403,156.444,464.778,153.069,464.778,153.069,568.403,170.431,568.403,170.431,464.778" fill="#6F4813"/>
                                <polyline  points="392.069,464.778,389.306,464.778,389.306,568.403,384.181,568.403,384.181,464.778,381.569,464.778,381.569,568.403,392.069,568.403,392.069,464.778" fill="#78592E"/>
                                <polyline  points="347.056,464.778,344.306,464.778,344.306,568.403,339.194,568.403,339.194,464.778,336.556,464.778,336.556,568.403,347.056,568.403,347.056,464.778" fill="#78592E"/>
                                <polyline  points="302.056,464.778,299.319,464.778,299.319,568.403,294.069,568.403,294.069,464.778,291.431,464.778,291.431,568.403,302.056,568.403,302.056,464.778" fill="#78592E"/>
                                <polyline  points="256.944,464.778,254.319,464.778,254.319,568.403,249.181,568.403,249.181,464.778,246.444,464.778,246.444,568.403,256.944,568.403,256.944,464.778" fill="#78592E"/>
                                <polyline  points="211.944,464.778,209.306,464.778,209.306,568.403,204.056,568.403,204.056,464.778,201.431,464.778,201.431,568.403,211.944,568.403,211.944,464.778" fill="#78592E"/>
                                <polyline  points="166.944,464.778,164.319,464.778,164.319,568.403,159.181,568.403,159.181,464.778,156.444,464.778,156.444,568.403,166.944,568.403,166.944,464.778" fill="#78592E"/>
                                <polyline  points="389.306,464.778,384.181,464.778,384.181,568.403,389.306,568.403,389.306,464.778" fill="#81694A"/>
                                <polyline  points="344.306,464.778,339.194,464.778,339.194,568.403,344.306,568.403,344.306,464.778" fill="#81694A"/>
                                <polyline  points="299.319,464.778,294.069,464.778,294.069,568.403,299.319,568.403,299.319,464.778" fill="#81694A"/>
                                <polyline  points="254.319,464.778,249.181,464.778,249.181,568.403,254.319,568.403,254.319,464.778" fill="#81694A"/>
                                <polyline  points="209.306,464.778,204.056,464.778,204.056,568.403,209.306,568.403,209.306,464.778" fill="#81694A"/>
                                <polyline  points="164.319,464.778,159.181,464.778,159.181,568.403,164.319,568.403,164.319,464.778" fill="#81694A"/>
                            </g>
                        </g>
                    </g>
                    <rect  y="436.931" enable-background="new    " fill="#CCCCCC" width="548.014" opacity="0.42" height="11.6528"/>
                </g>
            </g>
        </g>
        <g  transform="translate(258.042,934.05)">
            <g >
                <rect  y="0" id="connector0pin" gorn="0.1.1.0.0" fill="#8D8C8C" width="31.93" height="31.9" x="0"/>
                <rect  y="7.73544" fill="#8C8663" width="16.4442" height="16.4152" x="7.79153"/>
                <polygon  points="0,31.9,7.79153,24.1368,7.79153,6.97162,0,0" fill="#B8AF82"/>
                <polygon  points="24.2079,7.76321,7.90264,7.76321,0,0,31.93,0" fill="#80795B"/>
                <polygon  points="24.2079,24.1368,24.2079,7.76321,31.93,0,31.93,31.9" fill="#5E5B43"/>
                <polygon  points="0,31.9,7.87486,24.1368,24.2079,24.1368,31.93,31.9" fill="#9A916C"/>
            </g>
        </g>
        <g  transform="translate(258.042,34.05)">
            <g >
                <rect  y="0" id="connector5pin" gorn="0.1.2.0.0" fill="#8D8C8C" width="31.93" height="31.9" x="0"/>
                <rect  y="7.73544" fill="#8C8663" width="16.4442" height="16.4152" x="7.79153"/>
                <polygon  points="0,31.9,7.79153,24.1368,7.79153,6.97162,0,0" fill="#B8AF82"/>
                <polygon  points="24.2079,7.76321,7.90264,7.76321,0,0,31.93,0" fill="#80795B"/>
                <polygon  points="24.2079,24.1368,24.2079,7.76321,31.93,0,31.93,31.9" fill="#5E5B43"/>
                <polygon  points="0,31.9,7.87486,24.1368,24.2079,24.1368,31.93,31.9" fill="#9A916C"/>
            </g>
        </g>
        <g  transform="translate(358.042,934.05)">
            <g >
                <rect  y="0" id="connector1pin" gorn="0.1.3.0.0" fill="#8D8C8C" width="31.93" height="31.9" x="0"/>
                <rect  y="7.73544" fill="#8C8663" width="16.4442" height="16.4152" x="7.79153"/>
                <polygon  points="0,31.9,7.79153,24.1368,7.79153,6.97162,0,0" fill="#B8AF82"/>
                <polygon  points="24.2079,7.76321,7.90264,7.76321,0,0,31.93,0" fill="#80795B"/>
                <polygon  points="24.2079,24.1368,24.2079,7.76321,31.93,0,31.93,31.9" fill="#5E5B43"/>
                <polygon  points="0,31.9,7.87486,24.1368,24.2079,24.1368,31.93,31.9" fill="#9A916C"/>
            </g>
        </g>
        <g  transform="translate(358.042,34.05)">
            <g >
                <rect  y="0" id="connector4pin" gorn="0.1.4.0.0" fill="#8D8C8C" width="31.93" height="31.9" x="0"/>
                <rect  y="7.73544" fill="#8C8663" width="16.4442" height="16.4152" x="7.79153"/>
                <polygon  points="0,31.9,7.79153,24.1368,7.79153,6.97162,0,0" fill="#B8AF82"/>
                <polygon  points="24.2079,7.76321,7.90264,7.76321,0,0,31.93,0" fill="#80795B"/>
                <polygon  points="24.2079,24.1368,24.2079,7.76321,31.93,0,31.93,31.9" fill="#5E5B43"/>
                <polygon  points="0,31.9,7.87486,24.1368,24.2079,24.1368,31.93,31.9" fill="#9A916C"/>
            </g>
        </g>
        <g  transform="translate(458.042,934.05)">
            <g >
                <rect  y="0" id="connector2pin" gorn="0.1.5.0.0" fill="#8D8C8C" width="31.93" height="31.9" x="0"/>
                <rect  y="7.73544" fill="#8C8663" width="16.4442" height="16.4152" x="7.79153"/>
                <polygon  points="0,31.9,7.79153,24.1368,7.79153,6.97162,0,0" fill="#B8AF82"/>
                <polygon  points="24.2079,7.76321,7.90264,7.76321,0,0,31.93,0" fill="#80795B"/>
                <polygon  points="24.2079,24.1368,24.2079,7.76321,31.93,0,31.93,31.9" fill="#5E5B43"/>
                <polygon  points="0,31.9,7.87486,24.1368,24.2079,24.1368,31.93,31.9" fill="#9A916C"/>
            </g>
        </g>
        <g  transform="translate(458.042,34.05)">
            <g >
                <rect  y="0" id="connector3pin" gorn="0.1.6.0.0" fill="#8D8C8C" width="31.93" height="31.9" x="0"/>
                <rect  y="7.73544" fill="#8C8663" width="16.4442" height="16.4152" x="7.79153"/>
                <polygon  points="0,31.9,7.79153,24.1368,7.79153,6.97162,0,0" fill="#B8AF82"/>
                <polygon  points="24.2079,7.76321,7.90264,7.76321,0,0,31.93,0" fill="#80795B"/>
                <polygon  points="24.2079,24.1368,24.2079,7.76321,31.93,0,31.93,31.9" fill="#5E5B43"/>
                <polygon  points="0,31.9,7.87486,24.1368,24.2079,24.1368,31.93,31.9" fill="#9A916C"/>
            </g>
        </g>
    </g>
</svg>
